<svg width="32" height="32" viewBox="0 0 32 32" fill="none" xmlns="http://www.w3.org/2000/svg">
<circle cx="16" cy="16" r="14.5" fill="#FFF635" stroke="white" stroke-width="3"/>
<path d="M14.1196 7.66892L14.1197 7.6689C15.3063 6.47416 17.238 6.47388 18.4243 7.66861C18.9979 8.24517 19.3151 9.01548 19.3151 9.83071C19.3151 10.6457 18.9981 11.4159 18.4247 11.9921C18.4247 11.9921 18.4247 11.9921 18.4247 11.9921C18.4245 11.9923 18.4244 11.9924 18.4242 11.9926L17.1532 13.2727H23.6484C25.3317 13.2727 26.6816 14.6688 26.6818 16.3619V16.362C26.6818 18.0563 25.332 19.4523 23.6486 19.4523H17.1548L18.4249 20.7318L18.4252 20.7321C18.9988 21.3108 19.3153 22.0795 19.3153 22.8949C19.3153 23.7118 18.9968 24.4815 18.4226 25.0587C18.4225 25.0588 18.4225 25.0588 18.4224 25.0589L18.0679 24.7063C17.5918 25.1869 16.9525 25.4545 16.2729 25.4545C15.5923 25.4545 14.9535 25.1869 14.4736 24.702L14.1196 7.66892ZM14.1196 7.66892L7.66471 14.1689C7.66455 14.169 7.66439 14.1692 7.66422 14.1693C7.08919 14.7456 6.77271 15.5155 6.77271 16.3324V16.3915C6.77271 17.2061 7.08742 17.9749 7.65982 18.551L14.1182 25.0537L14.1196 7.66892Z" fill="white" stroke="#FFC90C"/>
</svg>
