<svg clip-rule="evenodd" fill-rule="evenodd" height="512" stroke-linejoin="round" stroke-miterlimit="2" viewBox="0 0 32 32" width="512" xmlns="http://www.w3.org/2000/svg" xmlns:xlink="http://www.w3.org/1999/xlink"><radialGradient id="_Radial1" cx="16" cy="15.993" gradientUnits="userSpaceOnUse" r="14.75"><stop offset="0" stop-color="#fbef57"/><stop offset="1" stop-color="#fbc02a"/></radialGradient><circle cx="16" cy="15.993" fill="url(#_Radial1)" r="14.75"/><circle cx="20.72" cy="12.263" fill="#fff" r="3.25"/><g fill="#3c4d4d"><circle cx="20.72" cy="12.263" r="1.75"/><path d="m12.007 23.75h8c.413 0 .75-.336.75-.75s-.337-.75-.75-.75h-8c-.414 0-.75.336-.75.75s.336.75.75.75z"/><circle cx="11.386" cy="12.263" r="5.793"/></g><circle cx="11.386" cy="12.263" fill="#fff" r="4.293"/><path d="m7.471 15.47-5.995 5.995c-.292.292-.292.768 0 1.06.293.293.768.293 1.061 0l5.995-5.995c.292-.292.292-.768 0-1.06-.293-.293-.768-.293-1.061 0z" fill="#3c4d4d"/><circle cx="11.293" cy="12.263" fill="#3c4d4d" r="2.5"/></svg>