<svg width="21" height="21" viewBox="0 0 21 21" fill="none" xmlns="http://www.w3.org/2000/svg">
<path d="M17.3757 7.50001H9.67954L11.7972 5.36709C12.2772 4.88493 12.5424 4.24152 12.5424 3.55801C12.5424 2.87449 12.2772 2.23109 11.7972 1.74854C10.8065 0.750488 9.19296 0.750488 8.2017 1.74854L1.74585 8.24941C1.26485 8.73119 1 9.37401 1 10.0597V10.1188C1 10.8025 1.26331 11.4443 1.7418 11.9259L8.20093 18.4293C8.68078 18.9142 9.31961 19.1818 10.0002 19.1818C10.6798 19.1818 11.3191 18.9142 11.7952 18.4336C12.2764 17.9499 12.5426 17.3068 12.5426 16.6222C12.5426 15.9386 12.2782 15.2964 11.7974 14.8113L9.68127 12.6796H17.3759C18.7727 12.6796 19.9091 11.518 19.9091 10.0893C19.9089 8.66181 18.7725 7.50001 17.3757 7.50001Z" stroke="#FFC90C" stroke-width="2"/>
<path d="M17.3757 7.50001H9.67954L11.7972 5.36709C12.2772 4.88493 12.5424 4.24152 12.5424 3.55801C12.5424 2.87449 12.2772 2.23109 11.7972 1.74854C10.8065 0.750488 9.19296 0.750488 8.2017 1.74854L1.74585 8.24941C1.26485 8.73119 1 9.37401 1 10.0597V10.1188C1 10.8025 1.26331 11.4443 1.7418 11.9259L8.20093 18.4293C8.68078 18.9142 9.31961 19.1818 10.0002 19.1818C10.6798 19.1818 11.3191 18.9142 11.7952 18.4336C12.2764 17.9499 12.5426 17.3068 12.5426 16.6222C12.5426 15.9386 12.2782 15.2964 11.7974 14.8113L9.68127 12.6796H17.3759C18.7727 12.6796 19.9091 11.518 19.9091 10.0893C19.9089 8.66181 18.7725 7.50001 17.3757 7.50001Z" fill="white"/>
</svg>
