<svg width="50" height="50" viewBox="0 0 50 50" fill="none" xmlns="http://www.w3.org/2000/svg">
<path fill-rule="evenodd" clip-rule="evenodd" d="M17.8469 38.7188H18.5688C18.7203 38.7188 18.8656 38.6578 18.9734 38.5516C19.0797 38.4438 19.1406 38.2984 19.1406 38.1469C19.1406 38.1453 19.1406 38.1437 19.1406 38.1422C19.1406 37.9906 19.0797 37.8453 18.9734 37.7375C18.8656 37.6313 18.7203 37.5703 18.5688 37.5703H18.0562C17.4094 37.5703 16.8844 37.0453 16.8844 36.3984C16.8844 35.7516 17.4094 35.2266 18.0562 35.2266H25.8984C26.05 35.2266 26.1953 35.1656 26.3031 35.0594C26.4094 34.9516 26.4703 34.8063 26.4703 34.6547C26.4703 34.6531 26.4703 34.6516 26.4703 34.65C26.4703 34.4984 26.4094 34.3531 26.3031 34.2453C26.1953 34.1391 26.05 34.0781 25.8984 34.0781C25.8984 34.0781 20.3188 34.0781 16.9781 34.0781C16.0203 34.0781 15.1 33.6969 14.4219 33.0187C13.7437 32.3406 13.3625 31.4219 13.3625 30.4625C13.3625 29.4062 13.3625 28.4062 13.3625 28.4062C13.3625 27.6562 12.7547 27.0469 12.0031 27.0469C11.8562 27.0469 11.7172 27.1172 11.6312 27.2359C11.5437 27.3547 11.5203 27.5078 11.5656 27.6484C11.5734 27.6703 11.5797 27.6938 11.5859 27.7172C11.75 28.3563 11.8031 29.0797 11.7312 29.8906C11.6484 31.9609 10.275 33.7594 8.29063 34.3844C7.51563 34.625 6.80156 35.0391 6.19375 35.5938C5.92188 35.8406 5.55 35.9469 5.18906 35.8781C4.82813 35.8109 4.51875 35.5781 4.35469 35.2484C2.81719 32.1609 1.95312 28.6797 1.95312 25C1.95312 12.2797 12.2797 1.95312 25 1.95312C37.7203 1.95312 48.0469 12.2797 48.0469 25C48.0469 37.7203 37.7203 48.0469 25 48.0469C22.7391 48.0469 20.5547 47.7203 18.4922 47.1125C18.1484 47.0125 17.8703 46.7609 17.7359 46.4281C17.6031 46.0969 17.6266 45.7219 17.8031 45.4109C17.85 45.3281 17.8766 45.2328 17.8766 45.1313C17.8766 45.1297 17.8766 45.1281 17.8766 45.1266C17.8766 44.8484 17.6781 44.6156 17.4141 44.5656C16.8359 44.4547 16.4281 43.9313 16.4641 43.3438L16.4656 43.3125C16.5031 42.6937 17.0156 42.2109 17.6359 42.2109H18.0859C18.2375 42.2109 18.3828 42.15 18.4906 42.0438C18.5969 41.9359 18.6578 41.7906 18.6578 41.6391C18.6578 41.6375 18.6578 41.6359 18.6578 41.6344C18.6578 41.4828 18.5969 41.3375 18.4906 41.2297C18.3828 41.1234 18.2375 41.0625 18.0859 41.0625H17.8469C17.1984 41.0625 16.675 40.5375 16.675 39.8906C16.675 39.2438 17.1984 38.7188 17.8469 38.7188Z" fill="url(#paint0_radial_206_962)"/>
<path d="M32.5359 23.0469C34.4845 23.0469 36.0641 21.4673 36.0641 19.5187C36.0641 17.5702 34.4845 15.9906 32.5359 15.9906C30.5874 15.9906 29.0078 17.5702 29.0078 19.5187C29.0078 21.4673 30.5874 23.0469 32.5359 23.0469Z" fill="#3C4D4D"/>
<path d="M17.464 22.253C19.4126 22.253 20.9922 20.6734 20.9922 18.7249C20.9922 16.7764 19.4126 15.1968 17.464 15.1968C15.5155 15.1968 13.9359 16.7764 13.9359 18.7249C13.9359 20.6734 15.5155 22.253 17.464 22.253Z" fill="#3C4D4D"/>
<path fill-rule="evenodd" clip-rule="evenodd" d="M20.4437 27.7265C20.4437 27.7265 26.9015 27.0015 32.0625 31.3031C32.5594 31.7171 33.2984 31.6499 33.7125 31.1531C34.1265 30.6562 34.0593 29.9171 33.5625 29.5031C27.6203 24.5499 20.1812 25.3984 20.1812 25.3984C19.5375 25.4703 19.075 26.0515 19.1484 26.6937C19.2203 27.3374 19.8015 27.7999 20.4437 27.7265Z" fill="#3C4D4D"/>
<path fill-rule="evenodd" clip-rule="evenodd" d="M35.9281 10.4062L29.0625 12.3359C28.4406 12.5109 28.0765 13.1593 28.2515 13.7812C28.4265 14.4046 29.075 14.7687 29.6969 14.5937L36.5625 12.664C37.1844 12.489 37.5484 11.8406 37.3734 11.2187C37.1984 10.5953 36.55 10.2312 35.9281 10.4062Z" fill="#3C4D4D"/>
<path fill-rule="evenodd" clip-rule="evenodd" d="M14.3859 12.664L21.25 14.5937C21.8734 14.7687 22.5203 14.4046 22.6953 13.7812C22.8703 13.1593 22.5078 12.5109 21.8844 12.3359L15.0187 10.4062C14.3969 10.2312 13.7484 10.5953 13.5734 11.2187C13.3984 11.8406 13.7625 12.489 14.3859 12.664Z" fill="#3C4D4D"/>
<path fill-rule="evenodd" clip-rule="evenodd" d="M9.32031 28.3219C9.06563 27.4828 9.21719 26.5703 9.73438 25.8594C10.2609 25.1328 11.1031 24.7031 12 24.7031H12.0031C14.0484 24.7031 15.7063 26.3609 15.7063 28.4062V30.4625C15.7063 30.8 15.8406 31.1234 16.0797 31.3625C16.3172 31.6 16.6406 31.7344 16.9781 31.7344H25.8984C26.6719 31.7344 27.4125 32.0422 27.9594 32.5891C28.5062 33.1344 28.8141 33.8766 28.8141 34.65V34.6547C28.8141 35.4281 28.5062 36.1703 27.9594 36.7156C27.4125 37.2625 26.6719 37.5703 25.8984 37.5703H21.4281C21.4656 37.7578 21.4844 37.9484 21.4844 38.1422V38.1469C21.4844 38.9203 21.1766 39.6625 20.6297 40.2078L20.6281 40.2094C20.8719 40.6406 21.0016 41.1312 21.0016 41.6344V41.6391C21.0016 42.4125 20.6938 43.1547 20.1469 43.7C20.0828 43.7656 20.0141 43.8281 19.9438 43.8859C20.1203 44.2625 20.2203 44.6828 20.2203 45.1266V45.1313C20.2203 46.6297 19.0891 47.8641 17.6344 48.0281C17.5656 48.0406 17.4969 48.0469 17.425 48.0469H10.1062C7.94375 48.0469 5.87031 47.1875 4.34063 45.6594C2.8125 44.1297 1.95312 42.0562 1.95312 39.8937C1.95312 39.8922 1.95312 39.8891 1.95312 39.8875C1.95312 37.725 2.8125 35.6516 4.34063 34.1219C5.25313 33.2094 6.36094 32.5359 7.56406 32.1406L7.57969 32.1359C8.61094 31.8125 9.32656 30.875 9.36562 29.7953C9.36719 29.7594 9.37031 29.7234 9.375 29.6891C9.44063 29.1781 9.42188 28.7234 9.32031 28.3219Z" fill="url(#paint1_radial_206_962)"/>
<defs>
<radialGradient id="paint0_radial_206_962" cx="0" cy="0" r="1" gradientUnits="userSpaceOnUse" gradientTransform="translate(25 25) scale(23.0469)">
<stop stop-color="#FBEF57"/>
<stop offset="1" stop-color="#FBC02A"/>
</radialGradient>
<radialGradient id="paint1_radial_206_962" cx="0" cy="0" r="1" gradientUnits="userSpaceOnUse" gradientTransform="translate(11.7172 39.1) rotate(-13.5621) scale(58.6687)">
<stop stop-color="white"/>
<stop offset="0.48" stop-color="#DFDFDF"/>
<stop offset="1" stop-color="#D5D5D5"/>
</radialGradient>
</defs>
</svg>
