<svg width="50" height="50" viewBox="0 0 50 50" fill="none" xmlns="http://www.w3.org/2000/svg">
<g clip-path="url(#clip0_206_984)">
<path d="M25 49.2188C3.35938 49.2188 0.751566 30.4688 0.781254 25.7812V24.2188C0.751566 19.5312 3.35938 0.78125 25 0.78125C46.6406 0.78125 49.2484 19.5312 49.2188 24.2188V25.7812C49.2484 30.4688 46.6406 49.2188 25 49.2188Z" fill="url(#paint0_linear_206_984)"/>
<path d="M38.1297 28.9329C38.2512 28.9059 38.3774 28.9088 38.4975 28.9412C38.6176 28.9737 38.7281 29.0348 38.8195 29.1192C38.9108 29.2037 38.9804 29.309 39.0222 29.4262C39.064 29.5434 39.0767 29.669 39.0594 29.7922C39.0029 30.4413 38.8905 31.0844 38.7234 31.7141C34.5334 34.0538 29.7982 35.2414 25 35.1563C20.2015 35.2407 15.4664 34.0522 11.2766 31.7118C11.1095 31.082 10.9971 30.439 10.9406 29.7899C10.9233 29.6667 10.936 29.5411 10.9778 29.4239C11.0196 29.3067 11.0892 29.2013 11.1805 29.1169C11.2719 29.0324 11.3824 28.9713 11.5025 28.9389C11.6226 28.9064 11.7488 28.9036 11.8703 28.9305C16.1449 30.1294 20.5605 30.7519 25 30.7813C29.4393 30.7526 33.855 30.131 38.1297 28.9329Z" fill="url(#paint1_linear_206_984)"/>
<path d="M39.0625 28.9062H39.0562C39.0587 28.791 39.0348 28.6768 38.9864 28.5722C38.9381 28.4677 38.8665 28.3755 38.7772 28.3027C38.6879 28.23 38.5831 28.1785 38.4709 28.1523C38.3587 28.1261 38.242 28.1259 38.1297 28.1516C33.855 29.3497 29.4394 29.9713 25 30C20.5605 29.9705 16.1449 29.3481 11.8703 28.1492C11.7578 28.1235 11.6409 28.1238 11.5285 28.1501C11.4161 28.1764 11.3113 28.2281 11.2219 28.3011C11.1325 28.3741 11.061 28.4666 11.0128 28.5715C10.9646 28.6764 10.941 28.7909 10.9438 28.9062H10.9375V29.6875H10.9438C10.9414 29.7221 10.9414 29.7568 10.9438 29.7914C11.0003 30.4405 11.1126 31.0835 11.2797 31.7133C11.3814 32.127 11.5092 32.5338 11.6625 32.9312C12.4819 35.01 13.8574 36.8232 15.6383 38.1726C18.3008 40.2892 21.6018 41.4414 25.0031 41.4414C28.4044 41.4414 31.7054 40.2892 34.368 38.1726C36.1489 36.8232 37.5243 35.01 38.3438 32.9312C38.497 32.5338 38.6249 32.127 38.7266 31.7133C38.8936 31.0835 39.006 30.4405 39.0625 29.7914C39.0649 29.7568 39.0649 29.7221 39.0625 29.6875V28.9062Z" fill="#ED8D06"/>
<path d="M39.0562 29.6875C39.0587 29.5723 39.0348 29.4581 38.9864 29.3535C38.9381 29.2489 38.8665 29.1567 38.7772 29.084C38.6879 29.0112 38.5831 28.9598 38.4709 28.9336C38.3587 28.9074 38.242 28.9071 38.1297 28.9328C33.855 30.1309 29.4394 30.7526 25 30.7812C20.5605 30.7518 16.1449 30.1294 11.8703 28.9305C11.7578 28.9047 11.6409 28.905 11.5285 28.9313C11.4161 28.9577 11.3113 29.0093 11.2219 29.0823C11.1325 29.1554 11.061 29.2479 11.0128 29.3527C10.9646 29.4576 10.941 29.5721 10.9438 29.6875H10.9375V30.4687H10.9438C10.9414 30.5033 10.9414 30.538 10.9438 30.5726C11.0003 31.2217 11.1126 31.8647 11.2797 32.4945C11.3814 32.9082 11.5092 33.315 11.6625 33.7125C12.4819 35.7912 13.8574 37.6045 15.6383 38.9539C18.3008 41.0705 21.6018 42.2227 25.0031 42.2227C28.4044 42.2227 31.7054 41.0705 34.368 38.9539C36.1489 37.6045 37.5243 35.7912 38.3438 33.7125C38.497 33.315 38.6249 32.9082 38.7266 32.4945C38.8936 31.8647 39.006 31.2217 39.0625 30.5726C39.0649 30.538 39.0649 30.5033 39.0625 30.4687V29.6875H39.0562Z" fill="#F9BF06"/>
<path d="M30.4047 40.4375C26.9173 41.7292 23.0827 41.7292 19.5953 40.4375C19.8524 39.7578 21.0156 37.5 25 37.5C28.9844 37.5 30.1477 39.7578 30.4047 40.4375Z" fill="#8F030E"/>
<path d="M38.3406 32.9312C37.5212 35.0099 36.1458 36.8232 34.3648 38.1726C33.169 39.1267 31.8332 39.8909 30.4047 40.4382C30.1476 39.7578 28.9844 37.5 25 37.5C21.0156 37.5 19.8523 39.757 19.5953 40.4367C18.1667 39.8893 16.831 39.1251 15.6351 38.171C13.8542 36.8216 12.4788 35.0084 11.6594 32.9296C11.506 32.5322 11.3781 32.1254 11.2766 31.7117C15.4664 34.0521 20.2015 35.2406 25 35.1562C29.7984 35.2406 34.5336 34.0521 38.7234 31.7117C38.6219 32.1259 38.4941 32.5333 38.3406 32.9312Z" fill="url(#paint2_linear_206_984)"/>
<path d="M38.1297 28.9329C38.2512 28.9059 38.3774 28.9088 38.4975 28.9412C38.6176 28.9737 38.7281 29.0348 38.8195 29.1192C38.9108 29.2037 38.9804 29.309 39.0222 29.4262C39.064 29.5434 39.0767 29.669 39.0594 29.7922C39.0029 30.4413 38.8905 31.0844 38.7234 31.7141C34.5334 34.0538 29.7982 35.2414 25 35.1563C20.2015 35.2407 15.4664 34.0522 11.2766 31.7118C11.1095 31.082 10.9971 30.439 10.9406 29.7899C10.9233 29.6667 10.936 29.5411 10.9778 29.4239C11.0196 29.3067 11.0892 29.2013 11.1805 29.1169C11.2719 29.0324 11.3824 28.9713 11.5025 28.9389C11.6226 28.9064 11.7488 28.9036 11.8703 28.9305C16.1449 30.1294 20.5605 30.7519 25 30.7813C29.4393 30.7526 33.855 30.131 38.1297 28.9329Z" fill="url(#paint3_linear_206_984)"/>
<path d="M38.1297 28.9329C38.2512 28.9059 38.3774 28.9088 38.4975 28.9412C38.6176 28.9737 38.7281 29.0348 38.8195 29.1192C38.9108 29.2037 38.9804 29.309 39.0222 29.4262C39.064 29.5434 39.0767 29.669 39.0594 29.7922C39.0029 30.4413 38.8905 31.0844 38.7234 31.7141C34.5334 34.0538 29.7982 35.2414 25 35.1563C20.2015 35.2407 15.4664 34.0522 11.2766 31.7118C11.1095 31.082 10.9971 30.439 10.9406 29.7899C10.9233 29.6667 10.936 29.5411 10.9778 29.4239C11.0196 29.3067 11.0892 29.2013 11.1805 29.1169C11.2719 29.0324 11.3824 28.9713 11.5025 28.9389C11.6226 28.9064 11.7488 28.9036 11.8703 28.9305C16.1449 30.1294 20.5605 30.7519 25 30.7813C29.4393 30.7526 33.855 30.131 38.1297 28.9329Z" fill="url(#paint4_linear_206_984)"/>
<path d="M45.6773 10.0382C41.857 9.03979 39.8437 10.9374 39.8437 10.9374C39.8437 10.9374 38.8015 8.24135 34.9812 7.24291C34.3852 7.04075 33.7533 6.96643 33.1267 7.0248C32.5001 7.08318 31.8928 7.27293 31.3444 7.58169C30.796 7.89046 30.3188 8.31131 29.944 8.81681C29.5691 9.32232 29.3049 9.90115 29.1687 10.5156C28.8582 11.629 28.8231 12.8012 29.0664 13.9312C30.2431 18.4298 32.6177 22.5252 35.9375 25.7812C40.3446 24.5648 44.3118 22.1132 47.3711 18.7156C48.1584 17.8609 48.7284 16.8292 49.0328 15.7078C49.4422 14.2187 49.4976 11.0367 45.6773 10.0382Z" fill="#EC3A4A"/>
<path d="M45.6773 10.0383C41.857 9.03985 39.8437 10.9375 39.8437 10.9375C39.8437 10.9375 38.8015 8.24142 34.9812 7.24298C34.3852 7.04082 33.7532 6.96653 33.1266 7.02496C32.4999 7.08338 31.8926 7.27319 31.3442 7.58204C30.7958 7.89088 30.3186 8.31182 29.9438 8.81742C29.5689 9.32302 29.3049 9.90193 29.1687 10.5164C28.8582 11.6296 28.8231 12.8015 29.0664 13.9313C30.2431 18.4299 32.6177 22.5252 35.9375 25.7813C40.3446 24.5649 44.3118 22.1132 47.3711 18.7156C48.1584 17.861 48.7284 16.8293 49.0328 15.7078C49.4422 14.2188 49.4976 11.0367 45.6773 10.0383Z" fill="url(#paint5_linear_206_984)"/>
<path d="M34.3547 8.63753C38.3313 9.67815 39.4422 12.3922 39.4422 12.3922C39.4422 12.3922 41.5133 10.5102 45.4898 11.5508C48.0188 12.2125 48.9273 13.7422 49.15 15.1516C49.4055 13.536 49.0719 10.9258 45.6773 10.0383C41.857 9.03987 39.8438 10.9375 39.8438 10.9375C39.8438 10.9375 38.8016 8.24143 34.9813 7.243C31.625 6.36565 30 8.4055 29.375 9.9219C30.2937 8.83362 31.8586 7.9844 34.3547 8.63753Z" fill="url(#paint6_linear_206_984)"/>
<path d="M43.9586 15.7094C43.9317 15.9005 43.948 16.0951 44.0061 16.2791C44.0643 16.4631 44.1628 16.6317 44.2946 16.7727C44.4263 16.9137 44.5879 17.0234 44.7676 17.0938C44.9472 17.1642 45.1404 17.1936 45.3328 17.1797C45.6182 17.1488 45.8986 17.0818 46.1672 16.9805C46.5985 16.8291 46.9728 16.5486 47.2392 16.1771C47.5056 15.8056 47.6512 15.361 47.6562 14.9039C47.6125 14.4288 47.4185 13.98 47.1023 13.6227C46.5391 12.95 44.5508 11.8985 43.8719 12.9375C43.5594 13.418 43.9625 14.2758 43.9906 14.8063C44.0057 15.1077 43.995 15.4098 43.9586 15.7094Z" fill="url(#paint7_linear_206_984)"/>
<path d="M36.8023 13.0774C36.7625 13.6367 37.0367 14.118 37.3492 14.0571C37.4682 14.0348 37.5818 13.9897 37.6836 13.9242C37.8875 13.7588 38.0483 13.5465 38.1523 13.3054C38.2564 13.0644 38.3006 12.8017 38.2812 12.5399C38.2693 12.2427 38.1939 11.9516 38.0602 11.686C37.8344 11.2375 37.0391 10.5367 36.768 11.2289C36.7152 11.6454 36.7313 12.0677 36.8156 12.4789C36.8212 12.6785 36.8168 12.8782 36.8023 13.0774Z" fill="url(#paint8_linear_206_984)"/>
<path d="M4.32264 10.0383C8.14295 9.03985 10.1562 10.9375 10.1562 10.9375C10.1562 10.9375 11.1984 8.24142 15.0187 7.24298C15.6148 7.04082 16.2467 6.96653 16.8734 7.02496C17.5001 7.08338 18.1074 7.27319 18.6558 7.58204C19.2042 7.89088 19.6814 8.31182 20.0562 8.81742C20.431 9.32302 20.6951 9.90193 20.8312 10.5164C21.1417 11.6296 21.1769 12.8015 20.9336 13.9313C19.7569 18.4299 17.3822 22.5252 14.0625 25.7813C9.65535 24.5649 5.68811 22.1132 2.62889 18.7156C1.84155 17.861 1.27158 16.8293 0.967169 15.7078C0.557794 14.2188 0.502325 11.0367 4.32264 10.0383Z" fill="url(#paint9_linear_206_984)"/>
<path d="M15.6453 8.63751C11.6687 9.67814 10.5578 12.3922 10.5578 12.3922C10.5578 12.3922 8.4867 10.5102 4.51014 11.5508C1.98124 12.2125 1.07264 13.7422 0.849985 15.1516C0.594517 13.5359 0.92811 10.9258 4.32264 10.0383C8.14295 9.03986 10.1562 10.9375 10.1562 10.9375C10.1562 10.9375 11.1984 8.24142 15.0187 7.24298C18.3781 6.36564 20.0039 8.40548 20.6273 9.92501C19.7062 8.83361 18.1414 7.98439 15.6453 8.63751Z" fill="url(#paint10_linear_206_984)"/>
<path d="M16.45 12.8906C16.5336 13.0644 16.6551 13.2174 16.8054 13.3382C16.9558 13.4591 17.1313 13.5448 17.3191 13.5891C17.5068 13.6333 17.7021 13.635 17.8906 13.5941C18.0792 13.5531 18.2561 13.4705 18.4086 13.3523C18.6291 13.168 18.8252 12.9564 18.9922 12.7226C19.2666 12.3575 19.4219 11.9167 19.4371 11.4602C19.4524 11.0038 19.3268 10.5537 19.0774 10.171C18.7772 9.80012 18.3668 9.53442 17.9055 9.41245C17.0633 9.16479 14.8258 9.39291 14.8375 10.6343C14.8422 11.2078 15.6555 11.6976 15.9727 12.1234C16.1532 12.3651 16.3129 12.6218 16.45 12.8906Z" fill="url(#paint11_linear_206_984)"/>
<path d="M9.03514 14.6672C9.31249 15.1547 9.80858 15.4024 10.0359 15.1782C10.1224 15.0936 10.1916 14.993 10.2398 14.8821C10.3174 14.631 10.3331 14.3649 10.2856 14.1064C10.2381 13.848 10.1289 13.6048 9.96718 13.3977C9.79172 13.1572 9.56724 12.9567 9.30858 12.8094C8.87264 12.5618 7.82421 12.4188 7.98046 13.1469C8.05389 13.4829 8.50624 13.8688 8.71171 14.1571C8.82811 14.3235 8.93593 14.4938 9.03514 14.6672Z" fill="url(#paint12_linear_206_984)"/>
<path d="M29.0664 13.9313C28.8231 12.8015 28.8583 11.6295 29.1688 10.5164C29.3592 9.84322 29.6775 9.213 30.1063 8.66016C29.2727 9.3389 28.6718 10.261 28.3875 11.2977C28.077 12.4108 28.0419 13.5828 28.2852 14.7125C29.4621 19.2111 31.8367 23.3063 35.1563 26.5625C39.3501 25.41 43.1483 23.1312 46.1391 19.9734C43.2788 22.7334 39.7709 24.7305 35.9375 25.7812C32.618 22.5251 30.2433 18.4298 29.0664 13.9313Z" fill="#ED8D06"/>
<path d="M20.9375 13.9313C19.7595 18.4302 17.3835 22.5256 14.0625 25.7812C10.2291 24.7305 6.72123 22.7334 3.86096 19.9734C6.85173 23.1312 10.65 25.41 14.8438 26.5625C18.1648 23.3068 20.5408 19.2115 21.7188 14.7125C21.9621 13.5828 21.9269 12.4108 21.6164 11.2977C21.3321 10.261 20.7313 9.3389 19.8977 8.66016C20.3264 9.213 20.6447 9.84322 20.8352 10.5164C21.1457 11.6295 21.1808 12.8015 20.9375 13.9313Z" fill="#ED8D06"/>
</g>
<defs>
<linearGradient id="paint0_linear_206_984" x1="25" y1="1.01875" x2="25" y2="49.4562" gradientUnits="userSpaceOnUse">
<stop stop-color="#FFE100"/>
<stop offset="1" stop-color="#F98900"/>
</linearGradient>
<linearGradient id="paint1_linear_206_984" x1="10.9375" y1="32.0321" x2="39.0625" y2="32.0321" gradientUnits="userSpaceOnUse">
<stop stop-color="#B8B4B2"/>
<stop offset="0.143" stop-color="#D0CCC9"/>
<stop offset="0.374" stop-color="#F2EDEA"/>
<stop offset="0.5" stop-color="#FFFAF6"/>
<stop offset="0.638" stop-color="#F9F5F1"/>
<stop offset="0.825" stop-color="#E8E5E3"/>
<stop offset="1" stop-color="#D1D1D1"/>
</linearGradient>
<linearGradient id="paint2_linear_206_984" x1="25" y1="41.621" x2="25" y2="28.9382" gradientUnits="userSpaceOnUse">
<stop stop-color="#69101B"/>
<stop offset="0.427" stop-color="#400A10"/>
</linearGradient>
<linearGradient id="paint3_linear_206_984" x1="25" y1="29.8149" x2="25" y2="35.0665" gradientUnits="userSpaceOnUse">
<stop stop-color="#B8B4B2"/>
<stop offset="0.143" stop-color="#D0CCC9"/>
<stop offset="0.374" stop-color="#F2EDEA"/>
<stop offset="0.5" stop-color="#FFFAF6"/>
<stop offset="0.638" stop-color="#F9F5F1"/>
<stop offset="0.825" stop-color="#E8E5E3"/>
<stop offset="1" stop-color="#D1D1D1"/>
</linearGradient>
<linearGradient id="paint4_linear_206_984" x1="25" y1="29.8149" x2="25" y2="35.0665" gradientUnits="userSpaceOnUse">
<stop stop-color="#ABABAB" stop-opacity="0.5"/>
<stop offset="0.541" stop-color="#C1C1C1" stop-opacity="0.216"/>
<stop offset="1" stop-color="#D1D1D1" stop-opacity="0"/>
</linearGradient>
<linearGradient id="paint5_linear_206_984" x1="41.1086" y1="7.1961" x2="34.9125" y2="25.4774" gradientUnits="userSpaceOnUse">
<stop stop-color="#FF5F6F"/>
<stop offset="0.346" stop-color="#FF2D44"/>
<stop offset="0.722" stop-color="#D41E32"/>
<stop offset="0.853" stop-color="#D61F33"/>
<stop offset="0.918" stop-color="#DE2337"/>
<stop offset="0.968" stop-color="#EB293E"/>
<stop offset="1" stop-color="#F82F44"/>
</linearGradient>
<linearGradient id="paint6_linear_206_984" x1="40.368" y1="6.95315" x2="39.0055" y2="13.8305" gradientUnits="userSpaceOnUse">
<stop stop-color="#FF8A95"/>
<stop offset="0.66" stop-color="#FF495D"/>
<stop offset="1" stop-color="#FF2D44"/>
</linearGradient>
<linearGradient id="paint7_linear_206_984" x1="46.1211" y1="13.0703" x2="44.7086" y2="17.0969" gradientUnits="userSpaceOnUse">
<stop stop-color="#FF5F5F"/>
<stop offset="0.283" stop-color="#FF565A"/>
<stop offset="0.746" stop-color="#FF3D4D"/>
<stop offset="1" stop-color="#FF2D44"/>
</linearGradient>
<linearGradient id="paint8_linear_206_984" x1="37.8" y1="11.293" x2="36.8727" y2="13.9375" gradientUnits="userSpaceOnUse">
<stop stop-color="#FF5F5F"/>
<stop offset="0.283" stop-color="#FF565A"/>
<stop offset="0.746" stop-color="#FF3D4D"/>
<stop offset="1" stop-color="#FF2D44"/>
</linearGradient>
<linearGradient id="paint9_linear_206_984" x1="8.89139" y1="7.1961" x2="15.0875" y2="25.4774" gradientUnits="userSpaceOnUse">
<stop stop-color="#FF5F6F"/>
<stop offset="0.346" stop-color="#FF2D44"/>
<stop offset="0.722" stop-color="#D41E32"/>
<stop offset="0.853" stop-color="#D61F33"/>
<stop offset="0.918" stop-color="#DE2337"/>
<stop offset="0.968" stop-color="#EB293E"/>
<stop offset="1" stop-color="#F82F44"/>
</linearGradient>
<linearGradient id="paint10_linear_206_984" x1="9.63202" y1="6.95314" x2="10.9945" y2="13.8305" gradientUnits="userSpaceOnUse">
<stop stop-color="#FF8A95"/>
<stop offset="0.66" stop-color="#FF495D"/>
<stop offset="1" stop-color="#FF2D44"/>
</linearGradient>
<linearGradient id="paint11_linear_206_984" x1="16.7912" y1="9.46988" x2="17.8503" y2="13.6033" gradientUnits="userSpaceOnUse">
<stop stop-color="#FF5F5F"/>
<stop offset="0.283" stop-color="#FF565A"/>
<stop offset="0.746" stop-color="#FF3D4D"/>
<stop offset="1" stop-color="#FF2D44"/>
</linearGradient>
<linearGradient id="paint12_linear_206_984" x1="8.88156" y1="12.6094" x2="9.57708" y2="15.3248" gradientUnits="userSpaceOnUse">
<stop stop-color="#FF5F5F"/>
<stop offset="0.283" stop-color="#FF565A"/>
<stop offset="0.746" stop-color="#FF3D4D"/>
<stop offset="1" stop-color="#FF2D44"/>
</linearGradient>
<clipPath id="clip0_206_984">
<rect width="50" height="50" fill="white"/>
</clipPath>
</defs>
</svg>
